<?xml version="1.0" standalone="no"?>
<!DOCTYPE svg PUBLIC "-//W3C//DTD SVG 20010904//EN"
 "http://www.w3.org/TR/2001/REC-SVG-20010904/DTD/svg10.dtd">
<svg version="1.0" xmlns="http://www.w3.org/2000/svg"
 width="1000.000000pt" height="1000.000000pt" viewBox="0 0 1000.000000 1000.000000"
 preserveAspectRatio="xMidYMid meet">
<metadata>
Created by potrace 1.16, written by Peter Selinger 2001-2019
</metadata>
<g transform="translate(0.000000,1000.000000) scale(0.097656,-0.097656)"
fill="#000000" stroke="none">
<path d="M0 5120 l0 -5120 5120 0 5120 0 0 5120 0 5120 -5120 0 -5120 0 0
-5120z m5750 3340 c85 -6 243 -22 350 -36 559 -73 915 -179 1051 -315 78 -77
74 -128 -17 -207 -167 -148 -611 -268 -1259 -341 -994 -112 -2346 58 -2654
335 -91 82 -93 143 -7 221 139 127 465 228 963 297 180 25 477 53 633 60 150
6 780 -3 940 -14z m-2556 -735 l71 -54 53 -268 c98 -500 149 -882 159 -1187
l6 -170 -64 46 -64 46 -7 98 c-29 405 -103 889 -213 1397 -26 121 -29 147 -19
147 4 0 39 -25 78 -55z m3996 -171 c-90 -441 -156 -884 -180 -1214 -16 -218
-15 -214 -53 -233 -17 -9 -47 -26 -66 -38 l-34 -23 7 144 c12 269 37 484 102
890 24 154 109 564 120 581 12 20 139 110 142 101 1 -5 -16 -99 -38 -208z
m-2756 -164 c81 -11 167 -20 190 -20 60 0 86 -10 86 -31 0 -13 -7 -19 -22 -19
-60 0 -68 -8 -68 -70 0 -71 14 -86 93 -95 36 -5 61 -13 64 -22 9 -22 -4 -27
-66 -25 -38 2 -62 -2 -68 -10 -11 -14 -1 -206 11 -226 3 -6 20 -13 36 -16 17
-3 44 -9 61 -12 21 -4 29 -11 27 -22 -2 -13 -18 -18 -63 -22 l-60 -5 -3 -42
c-5 -65 8 -80 78 -88 64 -7 74 -14 64 -39 -5 -12 -20 -16 -64 -16 -51 0 -60
-3 -65 -21 -9 -29 4 -109 18 -114 7 -1 35 -7 62 -11 34 -6 50 -14 50 -24 0
-11 -16 -16 -60 -20 l-60 -5 -3 -80 c-1 -44 1 -129 5 -190 l8 -110 60 -10 c51
-9 61 -14 63 -33 3 -21 0 -22 -62 -22 l-66 0 0 -57 c0 -32 -3 -95 -7 -140 -6
-78 -7 -83 -29 -83 -42 0 -54 10 -54 49 0 52 -10 61 -76 71 -73 10 -94 18 -94
36 0 16 5 17 83 14 71 -2 87 9 87 64 0 48 -13 66 -49 67 -37 0 -96 22 -94 34
2 6 33 12 70 15 l68 5 3 44 c2 24 0 47 -5 52 -5 5 -42 15 -83 24 -81 17 -101
28 -83 46 8 8 28 9 73 1 33 -6 67 -9 75 -6 8 3 17 22 21 42 6 29 3 39 -16 54
-12 10 -34 18 -49 19 -37 0 -97 22 -93 34 1 6 35 10 75 10 l72 0 3 34 c2 18 0
37 -5 42 -5 5 -39 13 -77 18 -67 10 -97 23 -83 38 4 3 40 7 80 7 l72 1 3 57
c4 68 1 70 -112 88 -38 6 -78 16 -89 22 -17 9 -17 12 -5 24 11 12 28 12 98 3
77 -11 85 -10 97 7 16 20 12 77 -7 99 -5 7 -31 15 -58 18 -65 8 -102 23 -102
43 0 15 9 16 65 11 36 -4 72 -4 80 -1 19 8 20 77 3 92 -10 8 -133 32 -162 32
-3 0 -6 7 -6 16 0 15 9 16 73 11 51 -5 77 -3 85 5 16 16 15 73 0 85 -7 5 -67
17 -133 27 -118 17 -172 37 -159 58 4 6 24 8 53 5 25 -4 84 -11 129 -17 63 -8
87 -8 98 1 21 17 18 102 -3 121 -10 9 -61 23 -115 32 -99 18 -136 34 -124 54
4 7 8 12 9 12 1 0 69 -9 151 -20z m1702 9 c13 -22 -24 -40 -117 -54 -51 -9
-102 -18 -111 -21 -31 -9 -48 -34 -48 -68 0 -53 17 -60 123 -51 132 12 170 12
174 -2 8 -22 -54 -39 -245 -67 -44 -6 -62 -23 -62 -56 0 -46 20 -54 125 -46
91 6 119 0 92 -22 -7 -6 -57 -18 -112 -28 -55 -10 -103 -22 -107 -28 -4 -6 -8
-23 -8 -38 0 -37 27 -49 105 -47 36 1 69 -1 73 -5 13 -14 -30 -35 -87 -41 -76
-9 -101 -27 -101 -69 0 -54 16 -60 135 -53 73 5 106 3 111 -5 13 -20 -25 -35
-129 -51 -109 -18 -127 -28 -127 -77 0 -56 45 -71 162 -56 38 5 58 4 63 -4 12
-20 -7 -28 -100 -46 -130 -24 -166 -53 -111 -89 18 -12 38 -14 88 -9 103 10
99 -27 -3 -42 -59 -8 -109 -24 -109 -34 0 -5 -3 -15 -6 -23 -3 -9 4 -25 15
-36 18 -18 33 -21 101 -21 64 0 80 -3 80 -15 0 -15 -35 -27 -130 -45 -58 -11
-70 -21 -70 -61 0 -40 21 -51 97 -49 92 2 93 2 93 -14 0 -13 -41 -26 -132 -41
-62 -10 -89 -73 -48 -110 17 -15 31 -17 105 -11 81 7 85 6 85 -13 0 -12 -1
-21 -2 -21 -34 0 -203 -42 -210 -52 -5 -7 -7 -27 -5 -45 3 -38 4 -38 -149 -58
-158 -20 -324 -28 -359 -17 l-30 9 35 6 c189 30 237 40 250 52 12 13 -2 15
-120 15 -134 0 -261 5 -417 16 -84 6 -111 19 -99 49 4 12 23 15 83 15 202 1
626 45 675 71 38 20 2 26 -197 33 -251 9 -470 25 -501 36 -27 11 -32 35 -8 44
8 3 68 8 132 12 222 11 468 42 565 70 40 12 6 27 -68 30 -387 17 -667 42 -688
63 -8 8 -7 15 3 25 11 10 57 16 160 20 328 15 644 70 513 90 -21 3 -128 13
-238 21 -327 25 -395 37 -395 70 0 19 21 23 180 30 154 7 414 38 479 57 76 23
61 35 -51 42 -190 12 -472 37 -532 46 -68 11 -85 22 -66 45 9 11 32 15 89 15
182 0 572 45 611 71 30 19 -13 26 -228 38 -272 15 -437 30 -468 41 -30 12 -31
38 -1 44 12 3 99 7 192 10 254 8 564 60 534 90 -3 3 -116 9 -252 14 -225 8
-269 13 -256 27 3 2 60 11 127 19 124 16 172 29 142 40 -8 3 -105 12 -215 21
-197 16 -280 27 -292 38 -3 4 -3 13 0 22 5 12 24 15 89 15 288 0 737 57 657
84 -8 3 -95 10 -194 16 -186 12 -559 46 -608 56 -22 5 -27 11 -25 27 3 22 5
22 333 28 353 7 559 20 775 49 170 22 177 22 186 9z m-2679 -1531 l46 -31 -6
-186 c-8 -227 -16 -311 -31 -311 -6 0 -28 17 -50 36 l-38 36 11 174 c6 96 11
205 11 244 0 38 3 70 6 70 3 0 26 -14 51 -32z m3483 -100 c0 -68 5 -175 11
-238 l11 -115 -44 -37 c-24 -21 -48 -38 -54 -38 -12 0 -19 80 -30 345 l-6 150
49 27 c26 15 51 27 56 27 4 1 7 -54 7 -121z m-3710 39 l45 -12 -1 -97 c0 -68
-4 -102 -15 -114 -10 -13 -14 -47 -14 -134 l0 -118 -27 19 c-15 11 -37 36 -50
57 -20 32 -23 49 -22 125 1 48 -1 87 -4 87 -20 0 -73 -57 -87 -95 -31 -79 -4
-168 77 -260 16 -19 27 -35 23 -35 -14 0 -94 61 -138 105 -67 69 -81 104 -79
208 0 48 -3 87 -8 87 -18 0 -68 -73 -80 -116 -11 -38 -10 -54 5 -109 9 -35 30
-85 46 -110 l29 -46 -31 18 c-17 10 -55 43 -83 74 -63 67 -81 121 -73 209 3
33 2 60 -2 60 -13 0 -63 -53 -72 -77 -15 -40 -10 -94 12 -140 32 -66 189 -208
310 -280 517 -306 1165 -490 1917 -543 822 -58 1834 163 2452 537 94 57 230
169 273 227 71 93 74 189 8 255 -35 35 -42 26 -35 -47 10 -110 -34 -186 -161
-278 -39 -28 -40 -28 -22 -4 65 94 88 181 68 258 -13 46 -67 116 -83 106 -6
-4 -7 -29 -3 -64 9 -81 -13 -151 -67 -214 -39 -46 -148 -126 -171 -126 -6 0
15 26 45 58 99 103 115 221 41 303 -19 21 -39 39 -44 39 -5 0 -9 -34 -9 -75 0
-90 -14 -127 -67 -177 l-38 -38 3 103 c3 79 0 112 -12 142 -9 21 -19 78 -23
125 l-6 87 34 13 c19 7 95 15 169 17 164 6 249 -10 367 -66 147 -71 217 -163
216 -283 -1 -344 -786 -777 -1734 -957 -123 -24 -362 -57 -509 -71 -113 -11
-596 -14 -732 -5 -483 34 -961 130 -1353 275 -263 96 -391 156 -565 263 -224
138 -360 260 -415 371 -37 75 -39 169 -6 238 68 142 287 237 546 236 61 0 130
-5 155 -11z m399 -17 c291 -120 728 -223 1111 -262 165 -17 708 -17 870 0 369
38 711 117 1048 243 74 28 136 48 138 46 5 -5 -55 -42 -131 -79 -126 -63 -406
-162 -585 -208 -97 -24 -224 -50 -252 -50 -16 0 -48 -41 -48 -59 0 -37 28 -53
79 -45 79 11 388 73 416 84 14 5 42 10 61 10 28 0 35 -4 32 -17 -2 -10 -14
-23 -28 -30 -48 -23 -199 -62 -361 -93 -90 -18 -171 -35 -179 -40 -8 -4 -19
-19 -25 -34 -7 -21 -5 -30 12 -47 20 -21 21 -21 139 -4 66 9 182 30 259 46
166 34 165 34 165 10 0 -15 -14 -24 -62 -39 -421 -133 -1023 -182 -1556 -126
-198 21 -425 59 -566 96 -153 39 -188 54 -184 76 5 22 27 21 163 -12 61 -14
174 -36 253 -48 156 -24 175 -22 180 26 5 41 -21 63 -84 71 -74 9 -320 67
-420 99 -85 27 -115 49 -97 67 8 8 45 1 124 -19 159 -43 380 -84 426 -80 37 3
38 4 41 45 4 51 -2 55 -123 78 -207 38 -400 95 -628 186 -97 39 -277 126 -277
135 0 9 20 3 89 -26z m2846 -653 c-11 -7 -35 -19 -53 -27 -53 -21 -29 -23 50
-5 120 28 128 28 78 0 -62 -34 -292 -108 -431 -138 -152 -34 -436 -76 -584
-86 -611 -42 -1320 46 -1720 213 -83 35 -52 32 95 -9 183 -51 221 -45 66 11
-44 15 -75 29 -69 31 6 2 64 -10 129 -26 597 -150 1288 -179 1884 -80 164 27
525 111 538 124 3 3 12 5 21 5 12 0 11 -3 -4 -13z m-3252 -697 c20 -6 37 -14
37 -18 0 -4 -28 -20 -62 -37 -37 -18 -67 -40 -77 -57 -11 -20 -24 -28 -43 -28
-62 0 -132 -49 -143 -101 -5 -21 1 -37 24 -70 39 -53 42 -106 8 -144 -20 -23
-34 -28 -103 -35 -97 -10 -139 -26 -194 -76 -64 -58 -84 -104 -84 -199 -1 -71
3 -86 29 -134 57 -102 150 -155 272 -153 105 1 207 60 259 148 14 24 29 44 32
44 4 0 30 -20 57 -44 l50 -44 -20 -37 c-128 -241 -486 -289 -700 -93 -113 103
-160 266 -121 418 38 146 131 242 286 291 36 11 54 22 51 31 -3 7 -4 40 -4 73
0 128 85 231 223 271 50 15 162 12 223 -6z m4175 -11 c116 -50 177 -142 178
-268 l0 -74 57 -17 c147 -46 243 -146 282 -297 19 -72 19 -124 0 -196 -23 -89
-55 -148 -112 -205 -133 -134 -347 -168 -527 -84 -75 35 -166 116 -192 170
-17 36 -17 36 7 51 13 9 38 28 55 44 l32 27 35 -49 c69 -95 159 -143 273 -144
59 0 82 5 127 27 102 50 161 143 161 256 0 157 -114 271 -286 287 -91 8 -118
30 -118 96 0 34 7 53 30 82 32 40 32 57 4 102 -20 32 -55 53 -100 60 -25 4
-47 16 -63 36 -14 16 -52 42 -85 58 l-59 28 29 12 c83 32 196 32 272 -2z
m-3776 -101 c117 -54 188 -163 188 -287 0 -86 -27 -150 -44 -106 -3 9 -30 27
-59 40 -51 22 -54 25 -49 54 15 103 -90 191 -213 178 -100 -10 -174 -80 -195
-184 -10 -48 -9 -66 6 -122 15 -55 26 -74 73 -122 31 -31 71 -78 88 -103 18
-25 54 -61 79 -79 44 -31 45 -32 20 -35 -39 -5 -124 15 -184 43 -76 35 -163
122 -198 198 -26 56 -29 72 -29 167 0 93 3 112 27 162 47 100 137 180 241 214
65 22 181 13 249 -18z m3414 -3 c70 -34 152 -115 184 -179 32 -66 46 -180 31
-253 -35 -179 -172 -311 -344 -331 -37 -5 -86 -6 -109 -3 l-41 6 55 23 c40 16
75 43 121 90 36 37 81 82 101 101 64 60 92 179 64 272 -15 52 -73 117 -122
140 -50 23 -127 24 -170 4 -18 -9 -48 -31 -66 -50 -29 -30 -34 -43 -38 -95 -3
-40 -9 -60 -17 -60 -7 0 -37 -16 -65 -35 -29 -20 -55 -33 -58 -30 -14 14 -13
155 2 207 26 91 119 181 219 214 69 23 184 13 253 -21z m-1808 -487 c32 -51
64 -77 128 -103 57 -23 57 -24 29 -31 -89 -21 -155 -84 -181 -171 -16 -55 -34
-70 -34 -30 -1 30 -36 106 -63 135 -25 27 -78 56 -122 66 -29 7 -28 9 41 40
91 43 108 65 151 196 3 9 10 -2 18 -27 7 -23 22 -57 33 -75z m-1612 47 c27 -8
71 -29 99 -47 50 -33 71 -68 41 -68 -9 0 -16 -8 -16 -20 0 -10 -7 -23 -16 -28
-9 -5 -17 -13 -17 -18 -2 -11 -4 -11 -99 31 -43 18 -78 30 -78 26 0 -9 55 -61
103 -96 51 -38 39 -44 -20 -10 -78 46 -113 76 -139 121 -58 99 7 150 142 109z
m3267 -7 c43 -22 6 -115 -73 -181 -41 -35 -108 -69 -123 -64 -7 2 -1 10 13 17
35 18 110 81 110 91 0 10 -16 5 -104 -34 -66 -30 -70 -31 -80 -13 -6 10 -21
34 -33 53 -13 18 -23 37 -23 41 1 8 66 50 117 76 67 34 147 39 196 14z m-2861
-78 c20 -6 46 -23 58 -37 l21 -27 -52 -24 c-56 -27 -100 -84 -121 -157 -16
-58 -22 -60 -62 -25 l-36 32 0 -28 c0 -16 9 -44 21 -63 11 -18 18 -36 15 -38
-11 -12 -58 30 -73 65 -38 92 46 261 149 298 42 16 37 16 80 4z m2407 -14 c38
-20 99 -90 122 -140 37 -82 18 -180 -41 -211 -37 -19 -39 -7 -5 25 35 33 35
103 1 145 l-25 30 2 -57 c3 -83 -16 -94 -38 -24 -11 34 -34 75 -58 103 -41 45
-99 79 -117 68 -13 -8 -13 1 0 25 24 45 105 63 159 36z m-2093 -125 c62 -28
99 -91 54 -91 -34 0 -94 -36 -132 -78 -30 -33 -57 -88 -79 -160 -8 -24 -84 42
-104 89 l-18 44 -8 -28 c-12 -45 8 -92 58 -136 30 -27 40 -41 29 -41 -28 0
-72 27 -101 62 -25 29 -27 38 -23 103 2 51 10 85 28 119 58 113 191 165 296
117z m1887 -20 c81 -50 126 -131 127 -226 0 -94 -57 -162 -128 -153 -25 4 -24
6 20 25 54 25 68 46 68 103 0 38 -23 100 -36 100 -3 0 -3 -21 0 -47 7 -50 -6
-86 -23 -68 -5 6 -11 19 -13 29 -6 38 -23 20 -26 -29 -3 -48 -22 -91 -22 -50
0 11 -13 47 -29 80 -36 77 -117 152 -172 161 -22 4 -39 9 -39 12 0 3 11 20 25
38 47 62 169 74 248 25z m-1595 -262 c266 -146 532 -293 742 -412 490 -276
604 -341 895 -508 171 -97 416 -239 545 -314 129 -76 320 -185 424 -244 104
-58 191 -112 194 -120 6 -17 -41 -108 -81 -157 -19 -22 -37 -34 -53 -34 -15 0
-145 70 -302 162 -838 488 -2438 1399 -2650 1507 -37 19 -42 25 -42 57 0 75
68 154 133 154 16 0 97 -38 195 -91z m1366 59 c36 -36 72 -118 62 -143 -6 -16
-32 -33 -263 -170 l-142 -84 -78 39 c-43 21 -99 44 -126 51 -26 6 -49 15 -52
19 -8 13 28 37 270 179 155 91 250 141 269 141 18 0 39 -11 60 -32z m1041
-174 c100 -100 228 -153 410 -170 91 -8 61 -22 -51 -23 -183 -2 -363 99 -438
247 -31 62 -33 78 -4 37 12 -16 49 -58 83 -91z m-3649 39 c-44 -88 -144 -172
-246 -208 -62 -22 -184 -38 -231 -30 -57 10 -40 21 42 29 77 8 182 37 240 67
50 25 148 109 184 157 17 22 31 39 33 37 2 -2 -8 -25 -22 -52z m536 -518 c54
-93 98 -172 98 -176 0 -5 -61 -42 -136 -85 -100 -56 -139 -73 -147 -65 -17 17
-57 13 -64 -6 -3 -9 -2 -33 4 -54 12 -46 9 -50 -96 -109 -87 -49 -72 -57 -153
84 -60 104 -65 90 66 164 42 23 76 49 76 57 0 8 -21 47 -46 87 -31 48 -43 76
-38 85 12 17 316 192 328 189 5 -1 54 -78 108 -171z m2809 84 c87 -49 161 -94
164 -99 3 -5 -15 -45 -40 -88 -25 -44 -45 -83 -45 -88 0 -5 43 -34 95 -64 53
-29 94 -58 93 -64 -7 -25 -114 -206 -122 -206 -4 0 -46 23 -92 50 l-83 51 2
52 c2 43 -1 52 -17 55 -10 2 -29 -2 -41 -8 -21 -11 -33 -7 -107 37 -45 27
-105 62 -133 78 -27 15 -51 29 -53 30 -5 5 35 80 111 210 79 135 85 145 100
145 5 0 81 -41 168 -91z m-1998 -83 c3 -8 -11 -25 -34 -42 -66 -50 -46 -59 40
-19 45 21 55 23 65 11 6 -7 17 -15 24 -17 7 -3 -22 -25 -65 -50 -43 -25 -204
-119 -358 -209 -154 -89 -365 -213 -470 -275 -104 -62 -307 -181 -450 -265
-409 -240 -400 -235 -400 -256 0 -11 8 -20 20 -22 22 -3 86 32 380 207 202
121 625 370 845 499 80 46 197 115 260 152 172 101 264 149 322 171 28 10 53
17 55 15 3 -3 -339 -213 -467 -286 -79 -45 -336 -196 -655 -385 -104 -62 -300
-178 -435 -257 -296 -175 -282 -168 -319 -168 -22 0 -37 9 -59 35 -37 46 -74
120 -70 141 4 23 15 30 328 212 151 88 493 287 760 443 702 409 672 393 683
365z m-1541 -447 c59 -96 108 -176 108 -179 0 -3 -28 -21 -62 -39 -35 -19 -98
-56 -140 -83 l-77 -48 -29 43 c-68 101 -192 318 -187 327 10 16 259 160 270
157 5 -2 58 -82 117 -178z m4222 125 c56 -31 116 -68 134 -81 l33 -25 -22 -36
c-12 -21 -58 -98 -102 -172 -43 -74 -82 -139 -87 -143 -9 -11 -22 -4 -167 82
-62 36 -112 70 -113 76 0 22 202 355 217 355 4 0 52 -25 107 -56z m-2211 -167
c24 -77 75 -132 147 -158 33 -12 60 -23 60 -24 0 -1 -27 -12 -60 -24 -69 -25
-120 -77 -139 -143 -26 -87 -27 -87 -44 -28 -24 81 -58 124 -121 154 -30 14
-62 26 -70 26 -33 0 -14 18 31 31 85 23 163 120 163 202 0 34 17 16 33 -36z"/>
<path d="M4671 5431 c-26 -26 -26 -42 -3 -69 15 -19 35 -22 196 -32 204 -13
439 -1 614 30 135 25 153 40 47 41 -44 0 -89 2 -100 4 -11 2 -99 5 -195 6
-196 2 -420 17 -512 35 -19 4 -33 -1 -47 -15z"/>
<path d="M4659 5257 c-14 -31 -5 -73 17 -81 61 -23 518 -34 678 -16 94 11 116
21 116 51 0 25 -21 27 -305 33 -215 5 -344 14 -457 32 -33 5 -39 3 -49 -19z"/>
<path d="M4358 3335 c-6 -14 -9 -27 -7 -29 2 -2 81 -45 174 -96 94 -51 235
-130 315 -175 80 -46 276 -156 435 -245 253 -142 695 -395 1065 -610 63 -37
135 -78 160 -92 108 -60 349 -199 515 -298 241 -144 263 -154 281 -139 8 7 14
18 12 25 -3 14 -178 119 -673 404 -159 92 -306 176 -325 187 -19 12 -181 104
-360 205 -179 102 -460 261 -625 355 -165 93 -428 241 -585 328 -157 86 -304
168 -328 182 l-42 24 -12 -26z"/>
<path d="M5955 3341 c-6 -5 -86 -53 -180 -106 -93 -54 -172 -99 -174 -101 -3
-3 4 -14 15 -25 20 -20 20 -19 208 87 159 91 187 110 184 128 -3 22 -36 33
-53 17z"/>
</g>
</svg>
